<svg width="68" height="75" viewBox="0 0 68 75" fill="none" xmlns="http://www.w3.org/2000/svg">
<path d="M65.0272 8.52813C54.488 8.48862 44.1461 5.67812 35.0359 0.373019C34.2544 -0.12434 33.2438 -0.12434 32.4623 0.373019C23.3521 5.67812 13.0102 8.49652 2.47099 8.53603C1.11306 8.55964 0.0158042 9.6649 0 11.0306V37.4931C0 59.7556 14.6838 67.5318 32.4229 74.7394C33.2755 75.0869 34.2228 75.0869 35.0753 74.7394C52.8144 67.5239 67.4982 59.7556 67.4982 37.4931V11.0306C67.4903 9.6649 66.393 8.55174 65.0272 8.52813ZM62.493 37.4931C62.493 55.8321 51.9697 61.8241 34.6333 69.5134C34.0727 69.758 33.4255 69.758 32.8649 69.5134C15.5285 61.8162 5.0052 55.8242 5.0052 37.4931V15.7753C4.9973 14.4726 5.99982 13.3911 7.30244 13.2885C16.1285 12.5858 24.7178 10.1306 32.5886 6.06494C33.3149 5.67022 34.1833 5.67022 34.9175 6.06494C42.7804 10.1228 51.3777 12.5858 60.1958 13.2885C61.4984 13.3911 62.5009 14.4726 62.493 15.7753V37.4931Z" fill="white"/>
<path d="M7.51562 15.7753L7.49982 37.4931C7.49982 54.6084 17.4706 59.9451 33.7491 67.1686C50.0276 59.9451 59.9984 54.6084 59.9984 37.4931V15.7753C50.8329 15.0411 41.9042 12.4912 33.7412 8.26758C25.5861 12.4912 16.6654 15.049 7.51562 15.7753Z" fill="white"/>
</svg>
