<svg width="85" height="75" viewBox="0 0 85 75" fill="none" xmlns="http://www.w3.org/2000/svg">
<path d="M77.9116 6.8866C73.5741 2.48069 67.6541 -6.10352e-05 61.471 -6.10352e-05C55.2919 -6.10352e-05 49.3677 2.47689 45.0265 6.87521L43.3904 8.52268C42.8121 9.06676 41.9066 9.06676 41.3282 8.52268L39.6997 6.8866C35.3623 2.48069 29.4383 -6.10352e-05 23.2552 -6.10352e-05C17.0686 -6.10352e-05 11.1441 2.48069 6.8068 6.8866C2.44267 11.3192 0 17.2931 0 23.5133C0 29.7334 2.44267 35.7042 6.8068 40.1399L8.43527 41.7684L40.5977 74.2571L40.6471 74.3065H40.6433C41.6021 75.2311 43.1165 75.2311 44.0752 74.3065C44.0866 74.2875 44.1056 74.2761 44.1247 74.2571L77.9117 40.1281C82.2758 35.6955 84.7185 29.7255 84.7185 23.5093C84.7185 17.2884 82.2757 11.3184 77.9116 6.8866ZM69.6323 36.0392H55.6151L53.005 44.737C52.8224 45.3572 52.2517 45.7795 51.6086 45.7795C50.9618 45.7795 50.3949 45.3572 50.2085 44.737L47.2864 34.9967L47.256 34.8788L45.7683 27.9161L41.3548 48.5148C41.214 49.192 40.6167 49.6752 39.9242 49.6752C39.2316 49.6752 38.6382 49.192 38.4935 48.5148L35.579 34.9388L34.0799 29.9203L32.5618 34.9959C32.3753 35.6161 31.8046 36.0384 31.1578 36.0384H15.0864C14.2798 36.0384 13.6253 35.3839 13.6253 34.5773C13.6253 33.7707 14.2798 33.1163 15.0864 33.1163H30.0659L32.676 24.4185C32.8625 23.7983 33.4332 23.376 34.08 23.376C34.7268 23.376 35.2975 23.7983 35.484 24.4185L38.406 34.1588L38.4365 34.2767L39.9279 41.2395L44.3414 20.6407H44.3376C44.4784 19.9635 45.0758 19.4803 45.7683 19.4803C46.4608 19.4803 47.0543 19.9635 47.1989 20.6407L50.102 34.2197L51.6125 39.2343L53.1307 34.1588C53.3171 33.5386 53.8878 33.1163 54.5346 33.1163H69.632C70.4386 33.1163 71.0931 33.7707 71.0931 34.5773C71.0931 35.3839 70.4389 36.0392 69.6323 36.0392Z" fill="white"/>
</svg>
