<svg width="75" height="75" viewBox="0 0 75 75" fill="none" xmlns="http://www.w3.org/2000/svg">
<path d="M1.91024 15.1652L26.0822 37.8602L22.3922 41.7902L33.2112 52.6092L37.5012 48.5812L41.7912 52.6092L52.6102 41.7902L15.1662 1.90922C14.8662 1.59022 14.4532 1.38422 14.0032 1.34722L2.07824 0.0162186C1.51624 -0.0587814 0.953242 0.147219 0.540242 0.541219C0.146242 0.954219 -0.0597579 1.51622 0.0152421 2.07922L1.34624 14.0042C1.38424 14.4542 1.59024 14.8672 1.90924 15.1662L1.91024 15.1652Z" fill="white"/>
<path d="M74.9392 67.1253C74.6952 65.6253 73.7772 64.3693 72.3892 63.6753L71.7142 63.3563C71.1522 63.0563 70.6262 62.6813 70.2142 62.2683L61.7762 53.8303L53.8262 61.7803L62.2452 70.1993C62.6762 70.6303 63.0512 71.1553 63.3142 71.6613L63.6892 72.4113C64.3642 73.7803 65.6202 74.6983 67.1202 74.9423C67.3642 74.9803 67.6262 74.9983 67.8702 74.9983C69.1072 74.9983 70.3072 74.5103 71.1892 73.6293L73.6272 71.1923C74.6962 70.1233 75.1832 68.6043 74.9392 67.1233V67.1253Z" fill="white"/>
<path d="M60.4582 41.8953C59.7262 41.1633 58.5382 41.1633 57.8062 41.8953L41.8962 57.8053C41.1642 58.5373 41.1642 59.7243 41.8962 60.4573C44.0932 62.6543 47.6542 62.6543 49.8512 60.4573L60.4582 49.8503C62.6552 47.6533 62.6552 44.0923 60.4582 41.8953Z" fill="white"/>
<path d="M73.0922 15.1652C73.4112 14.8652 73.6172 14.4522 73.6552 14.0032L74.9862 2.07824C75.0612 1.51624 74.8552 0.953242 74.4612 0.540242C74.0482 0.146242 73.4862 -0.0597579 72.9232 0.0152421L60.9982 1.34624C60.5482 1.38424 60.1352 1.59024 59.8352 1.90824L40.0722 22.9572L51.6532 35.2922L73.0912 15.1642L73.0922 15.1652Z" fill="white"/>
<path d="M4.78825 62.2692C4.37625 62.6822 3.85025 63.0573 3.28825 63.3573L2.61325 63.6763C1.22625 64.3703 0.307249 65.6263 0.0632486 67.1263C-0.180751 68.6073 0.307248 70.1263 1.37525 71.1953L3.81325 73.6323C4.69425 74.5133 5.89425 75.0013 7.13225 75.0013C7.37625 75.0013 7.63825 74.9823 7.88225 74.9453C9.38225 74.7013 10.6382 73.7833 11.3132 72.4143L11.6882 71.6643C11.9512 71.1583 12.3262 70.6333 12.7572 70.2023L21.1762 61.7832L13.2262 53.8333L4.78825 62.2713V62.2692Z" fill="white"/>
<path d="M17.1962 41.8953C16.4642 41.1633 15.2772 41.1633 14.5442 41.8953C12.3472 44.0923 12.3472 47.6533 14.5442 49.8503L25.1512 60.4573C27.3482 62.6543 30.9092 62.6543 33.1062 60.4573C33.8382 59.7253 33.8382 58.5383 33.1062 57.8053L17.1962 41.8953Z" fill="white"/>
</svg>
